<svg width="1000" height="1000" viewBox="0 0 1000 1000" fill="none" xmlns="http://www.w3.org/2000/svg">
<g clip-path="url(#clip0_19_261)">
<path fill-rule="evenodd" clip-rule="evenodd" d="M982.78 579.32C980.798 614.762 965.194 648.067 939.231 672.274C913.268 696.482 878.955 709.719 843.46 709.22H508.58C501.209 709.147 494.163 706.178 488.962 700.954C483.761 695.731 480.822 688.671 480.78 681.3V320.72C480.546 314.532 482.186 308.417 485.488 303.178C488.789 297.938 493.597 293.819 499.28 291.36C499.28 291.36 530.08 270 594.96 270C634.599 269.955 673.51 280.647 707.56 300.94C734.13 316.573 757.166 337.549 775.212 362.542C793.258 387.535 805.921 416.001 812.4 446.14C823.958 442.885 835.913 441.256 847.92 441.3C865.933 441.182 883.784 444.695 900.408 451.629C917.032 458.564 932.089 468.777 944.678 481.659C957.268 494.542 967.132 509.829 973.682 526.609C980.232 543.388 983.313 561.315 982.78 579.32ZM438.98 343.52C449.08 465.82 456.42 577.36 438.98 699.26C438.678 701.915 437.409 704.366 435.415 706.145C433.421 707.924 430.843 708.908 428.17 708.908C425.498 708.908 422.92 707.924 420.926 706.145C418.932 704.366 417.663 701.915 417.36 699.26C401.1 578.4 408.16 464.76 417.36 343.52C417.121 341.483 417.465 339.419 418.352 337.569C419.239 335.719 420.633 334.159 422.371 333.07C424.11 331.981 426.122 331.408 428.173 331.416C430.225 331.425 432.231 332.016 433.96 333.12C437.48 335.32 439.46 339.38 438.98 343.52ZM371.2 699.38C370.82 702.098 369.47 704.587 367.398 706.388C365.327 708.19 362.675 709.182 359.93 709.182C357.186 709.182 354.534 708.19 352.462 706.388C350.391 704.587 349.041 702.098 348.66 699.38C336.541 595.098 336.541 489.762 348.66 385.48C348.95 382.674 350.269 380.074 352.364 378.184C354.458 376.294 357.179 375.248 360 375.248C362.822 375.248 365.543 376.294 367.637 378.184C369.732 380.074 371.051 382.674 371.34 385.48C384.8 489.68 384.74 595.18 371.2 699.38ZM303.32 374.86C314.32 486.92 319.32 587.32 303.2 699.12C303.032 701.892 301.813 704.494 299.791 706.397C297.769 708.3 295.097 709.36 292.32 709.36C289.544 709.36 286.872 708.3 284.85 706.397C282.828 704.494 281.609 701.892 281.44 699.12C265.84 588.76 271.08 485.48 281.44 374.86C282.04 369.26 286.76 365.06 292.38 365.06C297.98 365.06 302.72 369.26 303.32 374.86ZM235.32 699.52C234.959 702.202 233.637 704.663 231.6 706.445C229.562 708.226 226.947 709.208 224.24 709.208C221.534 709.208 218.919 708.226 216.881 706.445C214.844 704.663 213.522 702.202 213.16 699.52C200.64 602.228 200.64 503.732 213.16 406.44C213.16 403.451 214.348 400.584 216.461 398.471C218.575 396.357 221.441 395.17 224.43 395.17C227.419 395.17 230.286 396.357 232.4 398.471C234.513 400.584 235.7 403.451 235.7 406.44C248.998 503.69 248.883 602.307 235.32 699.52ZM167.4 479.72C184.58 555.72 176.84 622.84 166.76 700.3C166.352 702.79 165.072 705.055 163.149 706.689C161.226 708.323 158.784 709.22 156.26 709.22C153.737 709.22 151.295 708.323 149.372 706.689C147.449 705.055 146.169 702.79 145.76 700.3C136.6 623.9 129 555.2 145.12 479.7C145.293 476.861 146.543 474.195 148.616 472.247C150.688 470.299 153.426 469.215 156.27 469.218C159.114 469.22 161.85 470.309 163.919 472.261C165.987 474.213 167.233 476.881 167.4 479.72ZM99.6405 468.18C115.38 546.04 110.24 611.96 99.2405 690.08C97.9405 701.62 78.1605 701.74 77.1005 690.08C67.1405 613.14 62.4205 545.24 76.7005 468.18C77.0513 465.385 78.4103 462.815 80.5223 460.951C82.6343 459.088 85.3539 458.06 88.1705 458.06C90.9871 458.06 93.7067 459.088 95.8187 460.951C97.9307 462.815 99.2897 465.385 99.6405 468.18ZM31.2405 505.92C47.7405 557.56 42.1005 599.52 30.5805 652.46C30.3487 655.138 29.1211 657.632 27.14 659.449C25.159 661.266 22.5686 662.274 19.8805 662.274C17.1924 662.274 14.602 661.266 12.6209 659.449C10.6399 657.632 9.41227 655.138 9.18048 652.46C-0.759519 600.56 -4.81952 557.7 8.30048 505.92C8.54082 503.046 9.85231 500.367 11.9749 498.415C14.0976 496.462 16.8764 495.378 19.7605 495.378C22.6446 495.378 25.4234 496.462 27.546 498.415C29.6687 500.367 30.9801 503.046 31.2205 505.92H31.2405Z" fill="black"/>
</g>
<defs>
<clipPath id="clip0_19_261">
<rect width="1000" height="460" fill="white" transform="translate(0 270)"/>
</clipPath>
</defs>
</svg>
